{
  "accessors": [
    {
      "bufferView": 2,
      "componentType": 5126,
      "count": 115,
      "max": [
        0.05000000074505806,
        1.5,
        2.75
      ],
      "min": [
        -0.05000000074505806,
        -1.5,
        -2.75
      ],
      "type": "VEC3"
    },
    {
      "bufferView": 2,
      "byteOffset": 1380,
      "componentType": 5126,
      "count": 115,
      "max": [
        0.9999958276748657,
        0.924240231513977,
        0.9238773584365845
      ],
      "min": [
        -0.9999958276748657,
        -0.924240231513977,
        -0.9238773584365845
      ],
      "type": "VEC3"
    },
    {
      "bufferView": 1,
      "componentType": 5126,
      "count": 115,
      "max": [
        0.9947251081466675,
        0.836662769317627
      ],
      "min": [
        0.00024116202257573605,
        0.02616715431213379
      ],
      "type": "VEC2"
    },
    {
      "bufferView": 0,
      "componentType": 5125,
      "count": 276,
      "type": "SCALAR"
    },
    {
      "bufferView": 2,
      "byteOffset": 2760,
      "componentType": 5126,
      "count": 665,
      "max": [
        7.0672478675842285,
        7.0672478675842285,
        -7.5
      ],
      "min": [
        -7.0672478675842285,
        -7.028982162475586,
        -9.0
      ],
      "type": "VEC3"
    },
    {
      "bufferView": 2,
      "byteOffset": 10740,
      "componentType": 5126,
      "count": 665,
      "max": [
        0.999698281288147,
        0.9997504353523254,
        0.9963489174842834
      ],
      "min": [
        -0.9997504353523254,
        -0.9997504353523254,
        -0.9963489174842834
      ],
      "type": "VEC3"
    },
    {
      "bufferView": 1,
      "byteOffset": 920,
      "componentType": 5126,
      "count": 665,
      "max": [
        0.9965503215789795,
        0.9997588396072388
      ],
      "min": [
        0.00024116202257573605,
        0.04420971870422363
      ],
      "type": "VEC2"
    },
    {
      "bufferView": 0,
      "byteOffset": 1104,
      "componentType": 5125,
      "count": 2208,
      "type": "SCALAR"
    },
    {
      "bufferView": 2,
      "byteOffset": 18720,
      "componentType": 5126,
      "count": 2283,
      "max": [
        4.75,
        5.125,
        4.987500190734863
      ],
      "min": [
        -4.75,
        -4.375,
        3.6008975505828857
      ],
      "type": "VEC3"
    },
    {
      "bufferView": 2,
      "byteOffset": 46116,
      "componentType": 5126,
      "count": 2283,
      "max": [
        1.0,
        0.9999168515205383,
        1.0
      ],
      "min": [
        -1.0,
        -0.9998659491539001,
        -0.7070621848106384
      ],
      "type": "VEC3"
    },
    {
      "bufferView": 1,
      "byteOffset": 6240,
      "componentType": 5126,
      "count": 2283,
      "max": [
        0.9885896444320679,
        0.9997588396072388
      ],
      "min": [
        0.044151321053504944,
        0.00048804283142089844
      ],
      "type": "VEC2"
    },
    {
      "bufferView": 0,
      "byteOffset": 9936,
      "componentType": 5125,
      "count": 9357,
      "type": "SCALAR"
    },
    {
      "bufferView": 2,
      "byteOffset": 73512,
      "componentType": 5126,
      "count": 448,
      "max": [
        8.520072937011719,
        10.79440689086914,
        11.078108787536621
      ],
      "min": [
        -8.520072937011719,
        -8.520072937011719,
        -4.508012771606445
      ],
      "type": "VEC3"
    },
    {
      "bufferView": 2,
      "byteOffset": 78888,
      "componentType": 5126,
      "count": 448,
      "max": [
        0.8660253882408142,
        0.9988623857498169,
        1.0
      ],
      "min": [
        -0.9995164275169373,
        -0.9995161294937134,
        -1.0
      ],
      "type": "VEC3"
    },
    {
      "bufferView": 1,
      "byteOffset": 24504,
      "componentType": 5126,
      "count": 448,
      "max": [
        0.9821594953536987,
        0.9997588396072388
      ],
      "min": [
        0.00024116202257573605,
        0.06008470058441162
      ],
      "type": "VEC2"
    },
    {
      "bufferView": 0,
      "byteOffset": 47364,
      "componentType": 5125,
      "count": 1104,
      "type": "SCALAR"
    },
    {
      "bufferView": 2,
      "byteOffset": 84264,
      "componentType": 5126,
      "count": 770,
      "max": [
        1.524999976158142,
        1.25,
        1.0825318098068237
      ],
      "min": [
        -0.2500068247318268,
        -1.25,
        -1.0825318098068237
      ],
      "type": "VEC3"
    },
    {
      "bufferView": 2,
      "byteOffset": 93504,
      "componentType": 5126,
      "count": 770,
      "max": [
        1.0,
        0.9952053427696228,
        0.9997243285179138
      ],
      "min": [
        -1.0,
        -0.9952053427696228,
        -0.9997243285179138
      ],
      "type": "VEC3"
    },
    {
      "bufferView": 1,
      "byteOffset": 28088,
      "componentType": 5126,
      "count": 770,
      "max": [
        0.9611438512802124,
        0.9795739650726318
      ],
      "min": [
        0.11439324915409088,
        0.06031942367553711
      ],
      "type": "VEC2"
    },
    {
      "bufferView": 0,
      "byteOffset": 51780,
      "componentType": 5125,
      "count": 2892,
      "type": "SCALAR"
    },
    {
      "bufferView": 2,
      "byteOffset": 102744,
      "componentType": 5126,
      "count": 28547,
      "max": [
        9.484683990478516,
        11.75936508178711,
        12.875
      ],
      "min": [
        -9.484683990478516,
        -10.16563606262207,
        -10.970332145690918
      ],
      "type": "VEC3"
    },
    {
      "bufferView": 2,
      "byteOffset": 445308,
      "componentType": 5126,
      "count": 28547,
      "max": [
        1.0,
        1.0,
        1.0
      ],
      "min": [
        -1.0,
        -1.0,
        -1.0
      ],
      "type": "VEC3"
    },
    {
      "bufferView": 1,
      "byteOffset": 34248,
      "componentType": 5126,
      "count": 28547,
      "max": [
        0.999352216720581,
        0.9997588396072388
      ],
      "min": [
        0.00024116202257573605,
        0.0005543231964111328
      ],
      "type": "VEC2"
    },
    {
      "bufferView": 0,
      "byteOffset": 63348,
      "componentType": 5125,
      "count": 92010,
      "type": "SCALAR"
    }
  ],
  "asset": {
    "extras": {
      "author": "Scarecrow_original (https://sketchfab.com/Scarecrow_original)",
      "license": "CC-BY-4.0 (http://creativecommons.org/licenses/by/4.0/)",
      "source": "https://sketchfab.com/3d-models/electric-motor-66b2ea9eb6e5468d91d814395036a537",
      "title": "Electric Motor"
    },
    "generator": "Sketchfab-12.68.0",
    "version": "2.0"
  },
  "bufferViews": [
    {
      "buffer": 0,
      "byteLength": 431388,
      "name": "floatBufferViews",
      "target": 34963
    },
    {
      "buffer": 0,
      "byteLength": 262624,
      "byteOffset": 431388,
      "byteStride": 8,
      "name": "floatBufferViews",
      "target": 34962
    },
    {
      "buffer": 0,
      "byteLength": 787872,
      "byteOffset": 694012,
      "byteStride": 12,
      "name": "floatBufferViews",
      "target": 34962
    }
  ],
  "buffers": [
    {
      "byteLength": 1481884,
      "uri": "scene.bin"
    }
  ],
  "images": [
    {
      "uri": "textures/Scene_-_Root_baseColor.png"
    },
    {
      "uri": "textures/Scene_-_Root_metallicRoughness.png"
    }
  ],
  "materials": [
    {
      "doubleSided": true,
      "name": "Scene_-_Root",
      "occlusionTexture": {
        "index": 1
      },
      "pbrMetallicRoughness": {
        "baseColorTexture": {
          "index": 0
        },
        "metallicRoughnessTexture": {
          "index": 1
        }
      }
    }
  ],
  "meshes": [
    {
      "name": "icon__0",
      "primitives": [
        {
          "attributes": {
            "NORMAL": 1,
            "POSITION": 0,
            "TEXCOORD_0": 2
          },
          "indices": 3,
          "material": 0,
          "mode": 4
        }
      ]
    },
    {
      "name": "vent__0",
      "primitives": [
        {
          "attributes": {
            "NORMAL": 5,
            "POSITION": 4,
            "TEXCOORD_0": 6
          },
          "indices": 7,
          "material": 0,
          "mode": 4
        }
      ]
    },
    {
      "name": "steel__0",
      "primitives": [
        {
          "attributes": {
            "NORMAL": 9,
            "POSITION": 8,
            "TEXCOORD_0": 10
          },
          "indices": 11,
          "material": 0,
          "mode": 4
        }
      ]
    },
    {
      "name": "bolt__0",
      "primitives": [
        {
          "attributes": {
            "NORMAL": 13,
            "POSITION": 12,
            "TEXCOORD_0": 14
          },
          "indices": 15,
          "material": 0,
          "mode": 4
        }
      ]
    },
    {
      "name": "plastic__0",
      "primitives": [
        {
          "attributes": {
            "NORMAL": 17,
            "POSITION": 16,
            "TEXCOORD_0": 18
          },
          "indices": 19,
          "material": 0,
          "mode": 4
        }
      ]
    },
    {
      "name": "korpus__0",
      "primitives": [
        {
          "attributes": {
            "NORMAL": 21,
            "POSITION": 20,
            "TEXCOORD_0": 22
          },
          "indices": 23,
          "material": 0,
          "mode": 4
        }
      ]
    }
  ],
  "nodes": [
    {
      "children": [
        1
      ],
      "matrix": [
        1.0,
        0.0,
        0.0,
        0.0,
        0.0,
        2.220446049250313e-16,
        -1.0,
        0.0,
        0.0,
        1.0,
        2.220446049250313e-16,
        0.0,
        0.0,
        0.0,
        0.0,
        1.0
      ],
      "name": "Sketchfab_model"
    },
    {
      "children": [
        2
      ],
      "matrix": [
        0.009999999776482582,
        0.0,
        0.0,
        0.0,
        0.0,
        0.0,
        0.009999999776482582,
        0.0,
        0.0,
        -0.009999999776482582,
        0.0,
        0.0,
        0.0,
        0.0,
        0.0,
        1.0
      ],
      "name": "27efa18be8264c159d387efdd4d268fb.fbx"
    },
    {
      "children": [
        3
      ],
      "name": "RootNode"
    },
    {
      "children": [
        4,
        6,
        8,
        10,
        12,
        14
      ],
      "name": "motor1"
    },
    {
      "children": [
        5
      ],
      "matrix": [
        1.0,
        1.2246467991473532e-16,
        -0.0,
        -0.0,
        -1.2246467991473532e-16,
        1.0,
        1.2246467991473532e-16,
        -0.0,
        -1.4997597826618576e-32,
        1.2246467991473532e-16,
        -1.0,
        -0.0,
        7.074999809265137,
        -1.4026060104370117,
        -0.2083333283662796,
        1.0
      ],
      "name": "icon"
    },
    {
      "mesh": 0,
      "name": "icon__0"
    },
    {
      "children": [
        7
      ],
      "matrix": [
        1.0,
        0.0,
        0.0,
        0.0,
        0.0,
        1.0,
        0.0,
        0.0,
        0.0,
        0.0,
        1.0,
        0.0,
        -2.174999952316284,
        -1.4026060104370117,
        -0.2083333283662796,
        1.0
      ],
      "name": "vent"
    },
    {
      "mesh": 1,
      "name": "vent__0"
    },
    {
      "children": [
        9
      ],
      "matrix": [
        1.0,
        0.0,
        0.0,
        0.0,
        0.0,
        1.0,
        0.0,
        0.0,
        0.0,
        0.0,
        1.0,
        0.0,
        -2.2249999046325684,
        -1.7776060104370117,
        5.691666603088379,
        1.0
      ],
      "name": "steel"
    },
    {
      "mesh": 2,
      "name": "steel__0"
    },
    {
      "children": [
        11
      ],
      "matrix": [
        1.0,
        0.0,
        0.0,
        0.0,
        0.0,
        1.0,
        0.0,
        0.0,
        0.0,
        0.0,
        1.0,
        0.0,
        -2.2249999046325684,
        -1.4026060104370117,
        -4.2833333015441895,
        1.0
      ],
      "name": "bolt"
    },
    {
      "mesh": 3,
      "name": "bolt__0"
    },
    {
      "children": [
        13
      ],
      "matrix": [
        1.0,
        0.0,
        0.0,
        0.0,
        0.0,
        1.0,
        0.0,
        0.0,
        0.0,
        0.0,
        1.0,
        0.0,
        1.774999976158142,
        7.047393798828125,
        1.6416666507720947,
        1.0
      ],
      "name": "plastic"
    },
    {
      "mesh": 4,
      "name": "plastic__0"
    },
    {
      "children": [
        15
      ],
      "matrix": [
        1.0,
        0.0,
        0.0,
        0.0,
        0.0,
        1.0,
        0.0,
        0.0,
        0.0,
        0.0,
        1.0,
        0.0,
        -2.2249999046325684,
        -1.0619699954986572,
        -2.633333444595337,
        1.0
      ],
      "name": "korpus"
    },
    {
      "mesh": 5,
      "name": "korpus__0"
    }
  ],
  "samplers": [
    {
      "magFilter": 9729,
      "minFilter": 9987,
      "wrapS": 10497,
      "wrapT": 10497
    }
  ],
  "scene": 0,
  "scenes": [
    {
      "name": "Sketchfab_Scene",
      "nodes": [
        0
      ]
    }
  ],
  "textures": [
    {
      "sampler": 0,
      "source": 0
    },
    {
      "sampler": 0,
      "source": 1
    }
  ]
}
